<?xml version="1.0" encoding="UTF-8"?>
<svg width="25px" height="25px" viewBox="0 0 25 25" version="1.1" xmlns="http://www.w3.org/2000/svg" xmlns:xlink="http://www.w3.org/1999/xlink">
    <!-- Generator: Sketch 55.2 (78181) - https://sketchapp.com -->
    <title>clover</title>
    <desc>Created with Sketch.</desc>
    <g id="Page-1" stroke="none" stroke-width="1" fill="none" fill-rule="evenodd">
        <g id="super-card-brawl" transform="translate(-1081.000000, -357.000000)" fill="#FFFFFF">
            <path d="M1100.27736,365.667043 C1099.49856,365.667043 1098.75642,365.819413 1098.07964,366.094327 C1098.71511,365.194913 1099.08806,364.105307 1099.08806,362.930223 C1099.08806,359.846843 1096.52581,357.347222 1093.36531,357.347222 C1090.20481,357.347222 1087.64267,359.846843 1087.64267,362.930223 C1087.64267,364.049006 1087.98128,365.089983 1088.56203,365.963462 C1087.9846,365.772297 1087.3663,365.667043 1086.72264,365.667043 C1083.56203,365.667043 1081,368.166663 1081,371.250044 C1081,374.333424 1083.56203,376.833044 1086.72264,376.833044 C1087.43642,376.833044 1088.11918,376.704449 1088.74934,376.471463 C1088.74922,376.47276 1091.41261,375.771103 1093.16338,372.66222 L1093.16338,374.534098 C1093.16338,374.534098 1092.26573,380.43459 1085.9372,381.080486 L1084.92723,381.080486 L1084.92723,382 L1102.16249,382 L1102.16249,381.080486 L1101.15264,381.080486 C1094.8241,380.43459 1093.92634,374.534098 1093.92634,374.534098 L1093.92634,372.788222 C1094.25244,373.488798 1096.05538,376.9142 1100.10733,376.829154 C1100.16393,376.830451 1100.22031,376.833044 1100.27736,376.833044 C1103.43797,376.833044 1106,374.333424 1106,371.250044 C1106,368.166663 1103.43797,365.667043 1100.27736,365.667043 Z" id="clover"></path>
        </g>
    </g>
</svg>