<?xml version="1.0" encoding="UTF-8"?>
<svg width="25px" height="25px" viewBox="0 0 25 25" version="1.1" xmlns="http://www.w3.org/2000/svg" xmlns:xlink="http://www.w3.org/1999/xlink">
    <!-- Generator: Sketch 55.2 (78181) - https://sketchapp.com -->
    <title>spade</title>
    <desc>Created with Sketch.</desc>
    <g id="Page-1" stroke="none" stroke-width="1" fill="none" fill-rule="evenodd">
        <g id="super-card-brawl" transform="translate(-1118.000000, -357.000000)" fill="#FFFFFF">
            <path d="M1136.04307,376.590888 C1140.79191,376.643902 1143.71332,373.621697 1142.10642,370.440544 C1140.49952,367.259295 1138.89758,366.543553 1136.3751,364.237186 C1133.85139,361.93082 1130.18166,357.941077 1130.19901,357 C1130.21759,357.941077 1126.69902,361.93082 1124.1753,364.237186 C1121.65283,366.543553 1120.05212,367.259295 1118.44399,370.440544 C1116.83709,373.621697 1119.75974,376.643902 1124.50734,376.590888 C1127.76698,376.554447 1129.23388,374.694389 1129.83228,373.531466 L1129.83228,375.053472 C1129.83228,375.053472 1128.79158,380.543511 1121.44717,381.144501 L1120.27637,381.144501 L1120.27637,382 L1140.27527,382 L1140.27527,381.144501 L1139.10324,381.144501 C1131.76007,380.543511 1130.71812,375.053472 1130.71812,375.053472 L1130.71812,373.731311 C1131.42308,374.895495 1132.96431,376.556482 1136.04307,376.590888" id="spade"></path>
        </g>
    </g>
</svg>